<svg width="87" height="85" viewBox="0 0 87 85" fill="none" xmlns="http://www.w3.org/2000/svg">
<path d="M43.5 78.5606C43.1124 78.5606 42.7407 78.3932 42.4929 78.1021L0.311069 29.1627C-0.0843857 28.7042 -0.105477 28.0397 0.263614 27.5606L16.0818 6.95454C16.3296 6.63 16.7224 6.43939 17.1363 6.43939H69.8636C70.2775 6.43939 70.6703 6.63 70.9182 6.95454L86.7364 27.5606C87.1054 28.0397 87.0843 28.7042 86.6889 29.1627L44.5071 78.1021C44.2593 78.3932 43.8875 78.5606 43.5 78.5606ZM3.0028 28.287L43.5 75.2739L83.9972 28.287L69.2045 9.01515H17.7954L3.0028 28.287Z" fill="white"/>
<path d="M85.6818 29.6212H1.31818C0.590545 29.6212 0 29.0468 0 28.3333C0 27.6198 0.590545 27.0455 1.31818 27.0455H85.6818C86.4095 27.0455 87 27.6224 87 28.3333C87 29.0442 86.4095 29.6212 85.6818 29.6212Z" fill="white"/>
<path d="M43.5 78.5606C43.3682 78.5606 43.2337 78.5426 43.1045 78.5014C42.4085 78.2876 42.0236 77.5638 42.2451 76.8864L58.0633 27.947C58.2821 27.2695 59.0282 26.8883 59.7163 27.1073C60.4123 27.3211 60.7972 28.0448 60.5757 28.7223L44.7575 77.6617C44.5809 78.2103 44.0589 78.5606 43.5 78.5606Z" fill="white"/>
<path d="M43.5 78.5606C42.9411 78.5606 42.4191 78.2103 42.2425 77.6591L26.4243 28.7197C26.2055 28.0423 26.5904 27.3185 27.2837 27.1047C27.9797 26.8858 28.7179 27.267 28.9367 27.9444L44.7549 76.8838C44.9737 77.5612 44.5888 78.285 43.8955 78.4988C43.7663 78.5426 43.6318 78.5606 43.5 78.5606Z" fill="white"/>
<path d="M27.6818 29.6212C27.1967 29.6212 26.7327 29.3611 26.5007 28.9103L15.9553 8.30424C15.631 7.66803 15.8946 6.8953 16.5458 6.57591C17.1996 6.25909 17.9879 6.51667 18.3148 7.15288L28.8603 27.7589C29.1872 28.3952 28.9209 29.1679 28.2697 29.4873C28.0825 29.5774 27.8822 29.6212 27.6818 29.6212Z" fill="white"/>
<path d="M27.6818 29.6212C27.4076 29.6212 27.1308 29.5362 26.8936 29.3636C26.3109 28.9361 26.1923 28.1298 26.6299 27.5606L42.4481 6.95455C42.8857 6.3853 43.7109 6.27197 44.2936 6.69697C44.8762 7.12454 44.9948 7.93076 44.5572 8.5L28.739 29.1061C28.478 29.4435 28.0826 29.6212 27.6818 29.6212Z" fill="white"/>
<path d="M59.3182 29.6212C58.9175 29.6212 58.522 29.4435 58.2637 29.1061L42.4455 8.5C42.0078 7.93076 42.1265 7.12454 42.7091 6.69697C43.2891 6.26682 44.1169 6.38273 44.5546 6.95454L60.3727 27.5606C60.8104 28.1298 60.6917 28.9361 60.1091 29.3636C59.8718 29.5388 59.595 29.6212 59.3182 29.6212Z" fill="white"/>
<path d="M59.3182 29.6212C59.1204 29.6212 58.9201 29.5774 58.7303 29.4847C58.0791 29.1653 57.8154 28.3926 58.1397 27.7564L68.6852 7.1503C69.0121 6.51409 69.8004 6.25652 70.4542 6.57333C71.1054 6.89273 71.369 7.66545 71.0447 8.30167L60.4993 28.9077C60.2646 29.3611 59.8006 29.6212 59.3182 29.6212Z" fill="white"/>
</svg>
