<svg width="256" height="256" viewBox="0 0 256 256" fill="none" xmlns="http://www.w3.org/2000/svg">
<path d="M228.646 34.7676C226.993 33.3393 224.98 32.3908 222.827 32.025C220.673 31.6592 218.46 31.89 216.428 32.6924L31.8711 105.197C29.4585 106.145 27.4176 107.849 26.054 110.053C24.6903 112.257 24.0771 114.844 24.3062 117.426C24.5352 120.008 25.5942 122.446 27.3247 124.376C29.0551 126.306 31.364 127.624 33.9058 128.132L84 138.151V199.984C83.975 202.363 84.6687 204.694 85.9904 206.672C87.3122 208.65 89.2003 210.183 91.4077 211.07C92.8865 211.689 94.473 212.01 96.0762 212.015C97.6428 212.01 99.1928 211.694 100.636 211.085C102.08 210.476 103.388 209.587 104.485 208.469L133.082 179.873L175.275 217.003C177.449 218.934 180.255 220.002 183.163 220.005C184.427 220.003 185.683 219.804 186.886 219.414C188.869 218.785 190.652 217.647 192.059 216.114C193.465 214.58 194.444 212.705 194.899 210.675L232.513 46.542C233.004 44.4134 232.903 42.191 232.221 40.1155C231.54 38.0401 230.303 36.1906 228.646 34.7676V34.7676ZM32.2749 116.719C32.1754 115.855 32.3702 114.982 32.8279 114.243C33.2855 113.503 33.9792 112.939 34.7969 112.643L203.972 46.1804L87.0723 130.608L35.4746 120.288C34.6175 120.14 33.8354 119.707 33.2548 119.059C32.6742 118.411 32.3289 117.587 32.2749 116.719V116.719ZM98.8281 202.813C98.2687 203.372 97.5561 203.753 96.7802 203.907C96.0043 204.062 95.2001 203.982 94.4692 203.68C93.7383 203.377 93.1136 202.864 92.6741 202.207C92.2346 201.549 92 200.776 92 199.984V143.72L127.064 174.577L98.8281 202.813ZM224.715 44.7549L187.101 208.888C186.946 209.563 186.619 210.187 186.15 210.697C185.682 211.208 185.089 211.588 184.43 211.801C183.77 212.014 183.067 212.051 182.388 211.91C181.71 211.77 181.08 211.455 180.56 210.997L94.4053 135.181L224.068 41.5357C224.409 41.99 224.645 42.515 224.756 43.072C224.868 43.6291 224.854 44.2041 224.715 44.7549V44.7549Z" fill="white"/>
</svg>
